<svg xmlns="http://www.w3.org/2000/svg" viewBox="0 0 64 64">
  <defs>
    <linearGradient id="bg" x1="0" y1="0" x2="1" y2="1">
      <stop offset="0%" stop-color="#c9564a"/>
      <stop offset="100%" stop-color="#7a2320"/>
    </linearGradient>
  </defs>
  <rect width="64" height="64" rx="16" fill="url(#bg)"/>
  <g fill="none" stroke="#f3e7d8" stroke-width="2" stroke-linecap="round" stroke-linejoin="round">
    <path d="M32 12c-3 6-11 9-11 18 0 6.5 4.9 10.8 11 10.8S43 36.5 43 30c0-9-8-12-11-18z" fill="#f3e7d8" stroke="none"/>
    <path d="M32 12c-6 3-16 2-19 9 3 7 11 9.5 15 6.2" fill="#e2b45a" stroke="none" opacity="0.9"/>
    <path d="M32 12c6 3 16 2 19 9-3 7-11 9.5-15 6.2" fill="#e2b45a" stroke="none" opacity="0.9"/>
    <path d="M32 40.5V50"/>
    <path d="M32 44c-3-1-5-4-10-3"/>
    <path d="M32 48c3-1 5-4 10-3"/>
  </g>
</svg>
